<svg width="138" height="32" viewBox="0 0 138 32" fill="none" xmlns="http://www.w3.org/2000/svg">
<path d="M60.6798 24L66.9814 6.76923H70.2798L76.5814 24H73.4552L68.606 10.2154L63.7568 24H60.6798ZM63.486 19.9385L64.2737 17.6H72.766L73.5537 19.9385H63.486Z" fill="#1C2A35"/>
<path d="M92.8278 24V6.76923H99.0062C100.368 6.76923 101.492 7.00718 102.379 7.48308C103.281 7.94256 103.946 8.56615 104.372 9.35385C104.815 10.1251 105.037 11.0031 105.037 11.9877C105.037 12.9067 104.824 13.76 104.397 14.5477C103.97 15.3354 103.306 15.9672 102.403 16.4431C101.501 16.919 100.344 17.1569 98.9324 17.1569H95.7816V24H92.8278ZM101.812 24L98.1939 16.3938H101.394L105.185 24H101.812ZM95.7816 14.9662H98.8093C99.9088 14.9662 100.713 14.7036 101.222 14.1785C101.747 13.6369 102.009 12.9313 102.009 12.0615C102.009 11.2082 101.755 10.5272 101.246 10.0185C100.738 9.49333 99.9252 9.23077 98.8093 9.23077H95.7816V14.9662Z" fill="#1C2A35"/>
<path d="M122.12 24V6.76923H127.683C129.685 6.76923 131.334 7.12205 132.631 7.82769C133.943 8.53333 134.912 9.53436 135.535 10.8308C136.175 12.1108 136.495 13.6369 136.495 15.4092C136.495 17.1487 136.175 18.6667 135.535 19.9631C134.912 21.2431 133.943 22.2359 132.631 22.9415C131.334 23.6472 129.685 24 127.683 24H122.12ZM125.074 21.4892H127.535C129.028 21.4892 130.202 21.2513 131.055 20.7754C131.925 20.2831 132.54 19.5856 132.901 18.6831C133.279 17.7641 133.467 16.6728 133.467 15.4092C133.467 14.1292 133.279 13.0379 132.901 12.1354C132.54 11.2164 131.925 10.5108 131.055 10.0185C130.202 9.50974 129.028 9.25538 127.535 9.25538H125.074V21.4892Z" fill="#1C2A35"/>
<path d="M33.7506 24V6.76923H44.8768V9.15692H36.7045V14.1046H44.1383V16.4431H36.7045V21.6123H44.8768V24H33.7506Z" fill="#1C2A35"/>
<rect y="7.13843" width="2.87179" height="17.2308" fill="#1C2A35"/>
<rect x="14.3594" y="7.13843" width="2.87179" height="17.2308" fill="#1C2A35"/>
<rect x="10.5303" y="11.9246" width="1.91453" height="7.65812" fill="#4A90E2"/>
<rect x="4.78711" y="11.9246" width="1.91453" height="7.65812" fill="#4A90E2"/>
<rect x="7.6582" y="13.8391" width="1.91453" height="3.82906" fill="#4A90E2"/>
</svg>
